{
  "version": "1.1.6",
  "modules": [
    {
      "id": 1,
      "plugin": "Core",
      "version": "1.1.6",
      "model": "AudioInterface",
      "params": [],
      "leftModuleId": 2,
      "data": {
        "audio": {
          "driver": 4,
          "deviceName": "system",
          "offset": 0,
          "maxChannels": 8,
          "sampleRate": 48000,
          "blockSize": 1024
        }
      },
      "pos": [
        114,
        0
      ]
    },
    {
      "id": 2,
      "plugin": "Fundamental",
      "version": "1.4.0",
      "model": "VCMixer",
      "params": [
        {
          "id": 0,
          "value": 1.0
        },
        {
          "id": 1,
          "value": 0.995757341
        },
        {
          "id": 2,
          "value": 0.26178059
        },
        {
          "id": 3,
          "value": 0.4314861
        },
        {
          "id": 4,
          "value": 1.0
        }
      ],
      "leftModuleId": 607,
      "rightModuleId": 1,
      "pos": [
        104,
        0
      ]
    },
    {
      "id": 3,
      "plugin": "Fundamental",
      "version": "1.4.0",
      "model": "VCO",
      "params": [
        {
          "id": 0,
          "value": 1.0
        },
        {
          "id": 1,
          "value": 1.0
        },
        {
          "id": 2,
          "value": -12.9599972
        },
        {
          "id": 3,
          "value": 0.0
        },
        {
          "id": 4,
          "value": 0.0
        },
        {
          "id": 5,
          "value": 0.5
        },
        {
          "id": 6,
          "value": 0.0
        }
      ],
      "rightModuleId": 596,
      "pos": [
        0,
        1
      ]
    },
    {
      "id": 4,
      "plugin": "Fundamental",
      "version": "1.4.0",
      "model": "VCF",
      "params": [
        {
          "id": 0,
          "value": 0.0
        },
        {
          "id": 1,
          "value": 0.5
        },
        {
          "id": 2,
          "value": 0.234000027
        },
        {
          "id": 3,
          "value": 1.0
        },
        {
          "id": 4,
          "value": 0.0
        }
      ],
      "rightModuleId": 6,
      "pos": [
        75,
        0
      ]
    },
    {
      "id": 5,
      "plugin": "Core",
      "version": "1.1.6",
      "model": "MIDIToCVInterface",
      "params": [],
      "leftModuleId": 605,
      "data": {
        "channels": 1,
        "polyMode": 0,
        "clockDivision": 24,
        "lastPitch": 8192,
        "lastMod": 0,
        "midi": {
          "driver": -11,
          "deviceName": "QWERTY keyboard (US)",
          "channel": -1
        }
      },
      "pos": [
        57,
        0
      ]
    },
    {
      "id": 6,
      "plugin": "Fundamental",
      "version": "1.4.0",
      "model": "ADSR",
      "params": [
        {
          "id": 0,
          "value": 0.258000046
        },
        {
          "id": 1,
          "value": 0.743000448
        },
        {
          "id": 2,
          "value": 0.5
        },
        {
          "id": 3,
          "value": 0.576500058
        }
      ],
      "leftModuleId": 4,
      "pos": [
        83,
        0
      ]
    },
    {
      "id": 594,
      "plugin": "Valley",
      "version": "1.1.5",
      "model": "Topograph",
      "params": [
        {
          "id": 0,
          "value": 0.0
        },
        {
          "id": 1,
          "value": 0.0
        },
        {
          "id": 2,
          "value": 0.0
        },
        {
          "id": 3,
          "value": 0.0
        },
        {
          "id": 4,
          "value": 0.0
        },
        {
          "id": 5,
          "value": 0.484000027
        },
        {
          "id": 6,
          "value": 0.311500043
        },
        {
          "id": 7,
          "value": 0.288000256
        },
        {
          "id": 8,
          "value": 0.00150000001
        },
        {
          "id": 9,
          "value": 0.12015
        }
      ],
      "leftModuleId": 595,
      "data": {
        "sequencerMode": 1,
        "triggerOutputMode": 0,
        "accOutputMode": 0,
        "extClockResolution": 2,
        "chaosKnobMode": 0,
        "runMode": 0,
        "panelStyle": 0,
        "running": 1
      },
      "pos": [
        131,
        1
      ]
    },
    {
      "id": 595,
      "plugin": "Bogaudio",
      "version": "1.1.35",
      "model": "Bogaudio-Walk2",
      "params": [
        {
          "id": 0,
          "value": 0.100000001
        },
        {
          "id": 1,
          "value": 0.0
        },
        {
          "id": 2,
          "value": 0.0
        },
        {
          "id": 3,
          "value": 0.0
        },
        {
          "id": 4,
          "value": 1.0
        },
        {
          "id": 5,
          "value": 1.0
        },
        {
          "id": 6,
          "value": 0.0
        }
      ],
      "leftModuleId": 618,
      "rightModuleId": 594,
      "data": {
        "zoom_out": false,
        "grid": false,
        "color": 0
      },
      "pos": [
        117,
        1
      ]
    },
    {
      "id": 596,
      "plugin": "AudibleInstruments",
      "version": "1.5.0",
      "model": "Warps",
      "params": [
        {
          "id": 0,
          "value": 0.0
        },
        {
          "id": 1,
          "value": 0.5
        },
        {
          "id": 2,
          "value": 0.0
        },
        {
          "id": 3,
          "value": 1.0
        },
        {
          "id": 4,
          "value": 1.0
        }
      ],
      "leftModuleId": 3,
      "data": {
        "shape": 0
      },
      "pos": [
        10,
        1
      ]
    },
    {
      "id": 597,
      "plugin": "KautenjaDSP-PotatoChips",
      "version": "1.9.0",
      "model": "2612",
      "params": [
        {
          "id": 0,
          "value": 0.0
        },
        {
          "id": 1,
          "value": 3.0
        },
        {
          "id": 2,
          "value": 7.0
        },
        {
          "id": 3,
          "value": 89.0
        },
        {
          "id": 4,
          "value": 26.0
        },
        {
          "id": 5,
          "value": 16.0
        },
        {
          "id": 6,
          "value": 22.0
        },
        {
          "id": 7,
          "value": 15.0
        },
        {
          "id": 8,
          "value": 77.0
        },
        {
          "id": 9,
          "value": 75.0
        },
        {
          "id": 10,
          "value": 68.0
        },
        {
          "id": 11,
          "value": 100.0
        },
        {
          "id": 12,
          "value": 5.0
        },
        {
          "id": 13,
          "value": 4.0
        },
        {
          "id": 14,
          "value": 6.0
        },
        {
          "id": 15,
          "value": 6.0
        },
        {
          "id": 16,
          "value": 5.0
        },
        {
          "id": 17,
          "value": 15.0
        },
        {
          "id": 18,
          "value": 13.0
        },
        {
          "id": 19,
          "value": 14.0
        },
        {
          "id": 20,
          "value": 3.0
        },
        {
          "id": 21,
          "value": 3.0
        },
        {
          "id": 22,
          "value": 0.0
        },
        {
          "id": 23,
          "value": 3.0
        },
        {
          "id": 24,
          "value": 1.0
        },
        {
          "id": 25,
          "value": 1.0
        },
        {
          "id": 26,
          "value": 1.0
        },
        {
          "id": 27,
          "value": 1.0
        },
        {
          "id": 28,
          "value": 0.0
        },
        {
          "id": 29,
          "value": 0.0
        },
        {
          "id": 30,
          "value": 0.0
        },
        {
          "id": 31,
          "value": -0.150000006
        },
        {
          "id": 32,
          "value": 2.0
        },
        {
          "id": 33,
          "value": 1.0
        },
        {
          "id": 34,
          "value": 0.0
        },
        {
          "id": 35,
          "value": 1.0
        },
        {
          "id": 36,
          "value": 3.0
        },
        {
          "id": 37,
          "value": 2.0
        },
        {
          "id": 38,
          "value": 0.0
        },
        {
          "id": 39,
          "value": 0.0
        },
        {
          "id": 40,
          "value": 0.0
        },
        {
          "id": 41,
          "value": 6.0
        },
        {
          "id": 42,
          "value": 6.0
        },
        {
          "id": 43,
          "value": 6.0
        },
        {
          "id": 44,
          "value": 1.0
        },
        {
          "id": 45,
          "value": 1.0
        },
        {
          "id": 46,
          "value": 1.0
        },
        {
          "id": 47,
          "value": 1.0
        },
        {
          "id": 48,
          "value": 0.0
        },
        {
          "id": 49,
          "value": 0.0
        },
        {
          "id": 50,
          "value": 0.0
        },
        {
          "id": 51,
          "value": 0.0
        }
      ],
      "leftModuleId": 621,
      "rightModuleId": 612,
      "pos": [
        84,
        2
      ]
    },
    {
      "id": 603,
      "plugin": "Bogaudio",
      "version": "1.1.35",
      "model": "Bogaudio-VCF",
      "params": [
        {
          "id": 0,
          "value": 0.141109988
        },
        {
          "id": 1,
          "value": 0.00999999978
        },
        {
          "id": 2,
          "value": 0.00150000001
        },
        {
          "id": 3,
          "value": 0.349499941
        },
        {
          "id": 4,
          "value": 2.0
        },
        {
          "id": 5,
          "value": 0.714999974
        }
      ],
      "rightModuleId": 606,
      "data": {
        "bandwidthMode": "pitched"
      },
      "pos": [
        35,
        1
      ]
    },
    {
      "id": 605,
      "plugin": "Bogaudio",
      "version": "1.1.35",
      "model": "Bogaudio-AnalyzerXL",
      "params": [],
      "rightModuleId": 5,
      "data": {
        "frequency_plot": "log",
        "range": 0.0,
        "amplitude_plot": "decibels_80",
        "smooth": 0.25,
        "quality": "good",
        "window": "kaiser"
      },
      "pos": [
        15,
        0
      ]
    },
    {
      "id": 606,
      "plugin": "Bogaudio",
      "version": "1.1.35",
      "model": "Bogaudio-VCF",
      "params": [
        {
          "id": 0,
          "value": 0.345110118
        },
        {
          "id": 1,
          "value": 0.00999999978
        },
        {
          "id": 2,
          "value": 0.00150000001
        },
        {
          "id": 3,
          "value": 0.416499972
        },
        {
          "id": 4,
          "value": 2.0
        },
        {
          "id": 5,
          "value": 0.431499928
        }
      ],
      "leftModuleId": 603,
      "rightModuleId": 617,
      "data": {
        "bandwidthMode": "pitched"
      },
      "pos": [
        45,
        1
      ]
    },
    {
      "id": 607,
      "plugin": "Fundamental",
      "version": "1.4.0",
      "model": "VCMixer",
      "params": [
        {
          "id": 0,
          "value": 1.0
        },
        {
          "id": 1,
          "value": 0.657609224
        },
        {
          "id": 2,
          "value": 0.313955396
        },
        {
          "id": 3,
          "value": 0.0
        },
        {
          "id": 4,
          "value": 1.0
        }
      ],
      "rightModuleId": 2,
      "pos": [
        94,
        0
      ]
    },
    {
      "id": 609,
      "plugin": "Sha-Bang-Modules",
      "version": "1.2.2",
      "model": "StochSeq",
      "params": [
        {
          "id": 0,
          "value": 0.0
        },
        {
          "id": 1,
          "value": 0.0
        },
        {
          "id": 2,
          "value": 0.0
        },
        {
          "id": 3,
          "value": 0.0
        },
        {
          "id": 4,
          "value": 32.0
        },
        {
          "id": 5,
          "value": 1.0
        },
        {
          "id": 6,
          "value": 4.0
        },
        {
          "id": 7,
          "value": 7.0
        }
      ],
      "rightModuleId": 610,
      "data": {
        "currentPattern": 0,
        "probs": [
          0.711162269,
          0.126867235,
          0.258783042,
          0.108305931,
          0.449115455,
          0.300349832,
          0.611598492,
          0.732729554,
          0.614567757,
          0.749326885,
          0.946203828,
          0.460588753,
          0.758351445,
          0.139341176,
          0.907734871,
          0.0666446686,
          0.0249642134,
          0.0420842767,
          0.541759551,
          0.0234010816,
          0.560166121,
          0.744089961,
          0.232526481,
          0.672128022,
          0.451660693,
          0.388959944,
          0.727713168,
          0.270946085,
          0.203164577,
          0.295374393,
          0.751416206,
          0.740981162
        ]
      },
      "pos": [
        149,
        1
      ]
    },
    {
      "id": 610,
      "plugin": "Sha-Bang-Modules",
      "version": "1.2.2",
      "model": "PolyrhythmClock",
      "params": [
        {
          "id": 0,
          "value": 0.0
        },
        {
          "id": 1,
          "value": 1.0
        },
        {
          "id": 2,
          "value": 5.0
        },
        {
          "id": 3,
          "value": 3.0
        },
        {
          "id": 4,
          "value": 3.0
        },
        {
          "id": 5,
          "value": 5.0
        },
        {
          "id": 6,
          "value": 12.0
        },
        {
          "id": 7,
          "value": 1.0
        },
        {
          "id": 8,
          "value": 1.0
        },
        {
          "id": 9,
          "value": 0.796000004
        },
        {
          "id": 10,
          "value": 0.612999976
        }
      ],
      "leftModuleId": 609,
      "data": {
        "clockOn": true,
        "extmode": 0
      },
      "pos": [
        182,
        1
      ]
    },
    {
      "id": 611,
      "plugin": "CountModula",
      "version": "1.13.0",
      "model": "ClockDivider",
      "params": [
        {
          "id": 0,
          "value": 0.0
        },
        {
          "id": 1,
          "value": 0.0
        }
      ],
      "data": {
        "moduleVersion": 1,
        "count": 309,
        "theme": 0
      },
      "pos": [
        198,
        1
      ]
    },
    {
      "id": 612,
      "plugin": "Sha-Bang-Modules",
      "version": "1.2.2",
      "model": "StochSeq",
      "params": [
        {
          "id": 0,
          "value": 0.0
        },
        {
          "id": 1,
          "value": 0.0
        },
        {
          "id": 2,
          "value": 0.0
        },
        {
          "id": 3,
          "value": 0.0
        },
        {
          "id": 4,
          "value": 32.0
        },
        {
          "id": 5,
          "value": 0.0
        },
        {
          "id": 6,
          "value": 0.0
        },
        {
          "id": 7,
          "value": 24.0
        }
      ],
      "leftModuleId": 597,
      "data": {
        "currentPattern": 0,
        "probs": [
          0.461506844,
          0.920231283,
          0.628418922,
          0.423555851,
          0.658904314,
          0.232735395,
          0.676621139,
          0.335596085,
          0.220632434,
          0.0201448798,
          0.195613682,
          0.496677756,
          0.102310658,
          0.205144823,
          0.803246439,
          0.612298548,
          0.487380862,
          0.196769297,
          0.390889466,
          0.880882919,
          0.7224828,
          0.620512724,
          0.480038881,
          0.331906497,
          0.997855783,
          0.949333251,
          0.973779678,
          0.29739511,
          0.952426195,
          0.201554537,
          0.536232293,
          0.931361258
        ]
      },
      "pos": [
        149,
        2
      ]
    },
    {
      "id": 615,
      "plugin": "ImpromptuModular",
      "version": "1.1.9",
      "model": "Clocked",
      "params": [
        {
          "id": 0,
          "value": 120.0
        },
        {
          "id": 1,
          "value": 0.0
        },
        {
          "id": 2,
          "value": 13.0
        },
        {
          "id": 3,
          "value": -5.0
        },
        {
          "id": 4,
          "value": 0.0
        },
        {
          "id": 5,
          "value": 0.0
        },
        {
          "id": 6,
          "value": 0.0
        },
        {
          "id": 7,
          "value": 0.0
        },
        {
          "id": 8,
          "value": 0.5
        },
        {
          "id": 9,
          "value": 0.179499894
        },
        {
          "id": 10,
          "value": 0.5
        },
        {
          "id": 11,
          "value": 0.5
        },
        {
          "id": 12,
          "value": 0.0
        },
        {
          "id": 13,
          "value": 0.0
        },
        {
          "id": 14,
          "value": 0.0
        },
        {
          "id": 15,
          "value": 0.0
        },
        {
          "id": 16,
          "value": 0.0
        },
        {
          "id": 17,
          "value": 0.0
        },
        {
          "id": 18,
          "value": 0.0
        },
        {
          "id": 19,
          "value": 0.0
        }
      ],
      "data": {
        "panelTheme": 0,
        "running": true,
        "displayDelayNoteMode": true,
        "bpmDetectionMode": false,
        "resetOnStartStop": 0,
        "ppqn": 4,
        "resetClockOutputsHigh": true,
        "momentaryRunInput": true,
        "clockMaster": false
      },
      "pos": [
        166,
        0
      ]
    },
    {
      "id": 616,
      "plugin": "Bogaudio",
      "version": "1.1.35",
      "model": "Bogaudio-Noise",
      "params": [],
      "leftModuleId": 617,
      "rightModuleId": 620,
      "data": {
        "poly_channels": 1
      },
      "pos": [
        68,
        1
      ]
    },
    {
      "id": 617,
      "plugin": "Fundamental",
      "version": "1.4.0",
      "model": "Scope",
      "params": [
        {
          "id": 0,
          "value": 0.0
        },
        {
          "id": 1,
          "value": 0.0
        },
        {
          "id": 2,
          "value": 0.0
        },
        {
          "id": 3,
          "value": 0.0
        },
        {
          "id": 4,
          "value": 6.0
        },
        {
          "id": 5,
          "value": 0.0
        },
        {
          "id": 6,
          "value": 0.0
        },
        {
          "id": 7,
          "value": 0.0
        }
      ],
      "leftModuleId": 606,
      "rightModuleId": 616,
      "data": {
        "lissajous": 0,
        "external": 0
      },
      "pos": [
        55,
        1
      ]
    },
    {
      "id": 618,
      "plugin": "Atelier",
      "version": "1.0.3",
      "model": "AtelierPalette",
      "params": [
        {
          "id": 0,
          "value": 0.0
        },
        {
          "id": 1,
          "value": 0.0
        },
        {
          "id": 2,
          "value": -2.0
        },
        {
          "id": 3,
          "value": 0.5
        },
        {
          "id": 4,
          "value": 0.5
        },
        {
          "id": 5,
          "value": 0.623000205
        },
        {
          "id": 6,
          "value": 0.0
        },
        {
          "id": 7,
          "value": 0.0
        },
        {
          "id": 8,
          "value": 0.0
        },
        {
          "id": 9,
          "value": 0.0
        },
        {
          "id": 10,
          "value": 0.0
        },
        {
          "id": 11,
          "value": 0.0
        },
        {
          "id": 12,
          "value": 0.5
        },
        {
          "id": 13,
          "value": 0.5
        },
        {
          "id": 14,
          "value": 0.5
        },
        {
          "id": 15,
          "value": 0.0
        },
        {
          "id": 16,
          "value": 0.0
        },
        {
          "id": 17,
          "value": 1.0
        },
        {
          "id": 18,
          "value": 0.0500000007
        },
        {
          "id": 19,
          "value": 0.0
        },
        {
          "id": 20,
          "value": 0.0
        },
        {
          "id": 21,
          "value": 0.0
        },
        {
          "id": 22,
          "value": 0.0
        },
        {
          "id": 23,
          "value": 0.0
        },
        {
          "id": 24,
          "value": 0.0
        },
        {
          "id": 25,
          "value": 0.0
        },
        {
          "id": 26,
          "value": 0.0
        }
      ],
      "leftModuleId": 619,
      "rightModuleId": 595,
      "data": {
        "rsqual": 4,
        "model": 13,
        "lpgColor": 0.5,
        "decay": 0.5,
        "freetune": false,
        "showmods": true,
        "lpgMode": 0
      },
      "pos": [
        99,
        1
      ]
    },
    {
      "id": 619,
      "plugin": "Atelier",
      "version": "1.0.3",
      "model": "AtelierPalette",
      "params": [
        {
          "id": 0,
          "value": 0.0
        },
        {
          "id": 1,
          "value": 0.0
        },
        {
          "id": 2,
          "value": 0.0
        },
        {
          "id": 3,
          "value": 0.731999934
        },
        {
          "id": 4,
          "value": 0.192499861
        },
        {
          "id": 5,
          "value": 0.5
        },
        {
          "id": 6,
          "value": 0.0
        },
        {
          "id": 7,
          "value": 0.0
        },
        {
          "id": 8,
          "value": 0.0
        },
        {
          "id": 9,
          "value": 0.0
        },
        {
          "id": 10,
          "value": 0.0
        },
        {
          "id": 11,
          "value": 0.0
        },
        {
          "id": 12,
          "value": 0.621500075
        },
        {
          "id": 13,
          "value": 0.5
        },
        {
          "id": 14,
          "value": 0.5
        },
        {
          "id": 15,
          "value": 0.0
        },
        {
          "id": 16,
          "value": 0.0
        },
        {
          "id": 17,
          "value": 1.0
        },
        {
          "id": 18,
          "value": 0.0500000007
        },
        {
          "id": 19,
          "value": 0.0
        },
        {
          "id": 20,
          "value": 0.0
        },
        {
          "id": 21,
          "value": 0.0
        },
        {
          "id": 22,
          "value": 0.173999995
        },
        {
          "id": 23,
          "value": 0.0
        },
        {
          "id": 24,
          "value": 0.0
        },
        {
          "id": 25,
          "value": 0.0
        },
        {
          "id": 26,
          "value": 0.0
        }
      ],
      "leftModuleId": 620,
      "rightModuleId": 618,
      "data": {
        "rsqual": 4,
        "model": 9,
        "lpgColor": 0.621500075,
        "decay": 0.5,
        "freetune": false,
        "showmods": true,
        "lpgMode": 0
      },
      "pos": [
        81,
        1
      ]
    },
    {
      "id": 620,
      "plugin": "Fundamental",
      "version": "1.4.0",
      "model": "VCMixer",
      "params": [
        {
          "id": 0,
          "value": 1.0
        },
        {
          "id": 1,
          "value": 0.567250729
        },
        {
          "id": 2,
          "value": 1.0
        },
        {
          "id": 3,
          "value": 1.0
        },
        {
          "id": 4,
          "value": 1.0
        }
      ],
      "leftModuleId": 616,
      "rightModuleId": 619,
      "pos": [
        71,
        1
      ]
    },
    {
      "id": 621,
      "plugin": "Bogaudio",
      "version": "1.1.35",
      "model": "Bogaudio-Switch18",
      "params": [
        {
          "id": 0,
          "value": 0.0
        },
        {
          "id": 1,
          "value": 0.0
        },
        {
          "id": 2,
          "value": 0.0
        },
        {
          "id": 3,
          "value": 0.0
        },
        {
          "id": 4,
          "value": 0.0
        },
        {
          "id": 5,
          "value": 1.0
        },
        {
          "id": 6,
          "value": 1.0
        },
        {
          "id": 7,
          "value": 1.0
        }
      ],
      "rightModuleId": 597,
      "data": {
        "clipping_mode": 0,
        "input_gain_db": 0.0,
        "sum": true,
        "inverting": "disabled",
        "row_exclusive": false,
        "column_exclusive": false
      },
      "pos": [
        78,
        2
      ]
    }
  ],
  "cables": [
    {
      "id": 1963,
      "outputModuleId": 2,
      "outputId": 0,
      "inputModuleId": 1,
      "inputId": 0,
      "color": "#0986ad"
    },
    {
      "id": 1965,
      "outputModuleId": 6,
      "outputId": 0,
      "inputModuleId": 4,
      "inputId": 0,
      "color": "#c91847"
    },
    {
      "id": 1966,
      "outputModuleId": 5,
      "outputId": 1,
      "inputModuleId": 6,
      "inputId": 4,
      "color": "#c9b70e"
    },
    {
      "id": 1970,
      "outputModuleId": 5,
      "outputId": 6,
      "inputModuleId": 6,
      "inputId": 5,
      "color": "#c91847"
    },
    {
      "id": 1973,
      "outputModuleId": 2,
      "outputId": 0,
      "inputModuleId": 1,
      "inputId": 1,
      "color": "#c9b70e"
    },
    {
      "id": 1989,
      "outputModuleId": 595,
      "outputId": 1,
      "inputModuleId": 594,
      "inputId": 3,
      "color": "#0c8e15"
    },
    {
      "id": 2032,
      "outputModuleId": 5,
      "outputId": 6,
      "inputModuleId": 597,
      "inputId": 32,
      "color": "#c9b70e"
    },
    {
      "id": 1997,
      "outputModuleId": 597,
      "outputId": 0,
      "inputModuleId": 603,
      "inputId": 3,
      "color": "#c91847"
    },
    {
      "id": 2034,
      "outputModuleId": 597,
      "outputId": 0,
      "inputModuleId": 605,
      "inputId": 7,
      "color": "#c91847"
    },
    {
      "id": 2035,
      "outputModuleId": 603,
      "outputId": 0,
      "inputModuleId": 605,
      "inputId": 6,
      "color": "#0986ad"
    },
    {
      "id": 2037,
      "outputModuleId": 597,
      "outputId": 0,
      "inputModuleId": 606,
      "inputId": 3,
      "color": "#0c8e15"
    },
    {
      "id": 2033,
      "outputModuleId": 603,
      "outputId": 0,
      "inputModuleId": 607,
      "inputId": 1,
      "color": "#0c8e15"
    },
    {
      "id": 2038,
      "outputModuleId": 606,
      "outputId": 0,
      "inputModuleId": 607,
      "inputId": 2,
      "color": "#c91847"
    },
    {
      "id": 2039,
      "outputModuleId": 606,
      "outputId": 0,
      "inputModuleId": 605,
      "inputId": 5,
      "color": "#0986ad"
    },
    {
      "id": 2040,
      "outputModuleId": 607,
      "outputId": 0,
      "inputModuleId": 2,
      "inputId": 1,
      "color": "#c9b70e"
    },
    {
      "id": 2046,
      "outputModuleId": 597,
      "outputId": 0,
      "inputModuleId": 607,
      "inputId": 3,
      "color": "#c91847"
    },
    {
      "id": 2057,
      "outputModuleId": 610,
      "outputId": 0,
      "inputModuleId": 609,
      "inputId": 3,
      "color": "#0c8e15"
    },
    {
      "id": 2062,
      "outputModuleId": 610,
      "outputId": 1,
      "inputModuleId": 612,
      "inputId": 3,
      "color": "#c91847"
    },
    {
      "id": 2061,
      "outputModuleId": 612,
      "outputId": 64,
      "inputModuleId": 597,
      "inputId": 28,
      "color": "#0c8e15"
    },
    {
      "id": 2059,
      "outputModuleId": 611,
      "outputId": 4,
      "inputModuleId": 609,
      "inputId": 0,
      "color": "#0c8e15"
    },
    {
      "id": 2074,
      "outputModuleId": 615,
      "outputId": 6,
      "inputModuleId": 610,
      "inputId": 0,
      "color": "#c91847"
    },
    {
      "id": 1990,
      "outputModuleId": 595,
      "outputId": 0,
      "inputModuleId": 594,
      "inputId": 2,
      "color": "#c91847"
    },
    {
      "id": 2084,
      "outputModuleId": 615,
      "outputId": 4,
      "inputModuleId": 594,
      "inputId": 1,
      "color": "#0c8e15"
    },
    {
      "id": 2085,
      "outputModuleId": 615,
      "outputId": 5,
      "inputModuleId": 594,
      "inputId": 9,
      "color": "#c91847"
    },
    {
      "id": 2087,
      "outputModuleId": 615,
      "outputId": 3,
      "inputModuleId": 595,
      "inputId": 6,
      "color": "#0c8e15"
    },
    {
      "id": 2090,
      "outputModuleId": 594,
      "outputId": 0,
      "inputModuleId": 618,
      "inputId": 5,
      "color": "#0c8e15"
    },
    {
      "id": 2091,
      "outputModuleId": 594,
      "outputId": 3,
      "inputModuleId": 618,
      "inputId": 6,
      "color": "#0986ad"
    },
    {
      "id": 2098,
      "outputModuleId": 620,
      "outputId": 0,
      "inputModuleId": 2,
      "inputId": 2,
      "color": "#c9b70e"
    },
    {
      "id": 2096,
      "outputModuleId": 619,
      "outputId": 2,
      "inputModuleId": 620,
      "inputId": 1,
      "color": "#c91847"
    },
    {
      "id": 2097,
      "outputModuleId": 618,
      "outputId": 2,
      "inputModuleId": 620,
      "inputId": 2,
      "color": "#0986ad"
    },
    {
      "id": 2099,
      "outputModuleId": 594,
      "outputId": 1,
      "inputModuleId": 619,
      "inputId": 5,
      "color": "#0c8e15"
    },
    {
      "id": 2100,
      "outputModuleId": 594,
      "outputId": 4,
      "inputModuleId": 619,
      "inputId": 6,
      "color": "#c91847"
    },
    {
      "id": 2102,
      "outputModuleId": 609,
      "outputId": 64,
      "inputModuleId": 619,
      "inputId": 3,
      "color": "#0c8e15"
    },
    {
      "id": 2103,
      "outputModuleId": 610,
      "outputId": 2,
      "inputModuleId": 611,
      "inputId": 0,
      "color": "#0986ad"
    },
    {
      "id": 2104,
      "outputModuleId": 615,
      "outputId": 2,
      "inputModuleId": 594,
      "inputId": 0,
      "color": "#c9b70e"
    },
    {
      "id": 2056,
      "outputModuleId": 609,
      "outputId": 65,
      "inputModuleId": 621,
      "inputId": 0,
      "color": "#0986ad"
    },
    {
      "id": 2105,
      "outputModuleId": 621,
      "outputId": 7,
      "inputModuleId": 597,
      "inputId": 36,
      "color": "#c91847"
    },
    {
      "id": 2107,
      "outputModuleId": 621,
      "outputId": 5,
      "inputModuleId": 603,
      "inputId": 0,
      "color": "#c9b70e"
    },
    {
      "id": 2106,
      "outputModuleId": 621,
      "outputId": 6,
      "inputModuleId": 606,
      "inputId": 0,
      "color": "#0986ad"
    },
    {
      "id": 2060,
      "outputModuleId": 611,
      "outputId": 4,
      "inputModuleId": 612,
      "inputId": 0,
      "color": "#0986ad"
    },
    {
      "id": 2113,
      "outputModuleId": 595,
      "outputId": 2,
      "inputModuleId": 594,
      "inputId": 4,
      "color": "#0986ad"
    }
  ]
}