{
  "version": "1.1.6",
  "modules": [
    {
      "id": 1,
      "plugin": "Core",
      "version": "1.1.6",
      "model": "AudioInterface",
      "params": [],
      "leftModuleId": 2,
      "rightModuleId": 8,
      "data": {
        "audio": {
          "driver": 8,
          "deviceName": "Default Device",
          "offset": 0,
          "maxChannels": 8,
          "sampleRate": 48000,
          "blockSize": 256
        }
      },
      "pos": [
        87,
        0
      ]
    },
    {
      "id": 2,
      "plugin": "Fundamental",
      "version": "1.4.0",
      "model": "VCMixer",
      "params": [
        {
          "id": 0,
          "value": 0.522999883
        },
        {
          "id": 1,
          "value": 0.683065236
        },
        {
          "id": 2,
          "value": 0.649123967
        },
        {
          "id": 3,
          "value": 0.995757282
        },
        {
          "id": 4,
          "value": 1.0
        }
      ],
      "rightModuleId": 1,
      "pos": [
        77,
        0
      ]
    },
    {
      "id": 3,
      "plugin": "Fundamental",
      "version": "1.4.0",
      "model": "VCO",
      "params": [
        {
          "id": 0,
          "value": 1.0
        },
        {
          "id": 1,
          "value": 1.0
        },
        {
          "id": 2,
          "value": 0.0
        },
        {
          "id": 3,
          "value": 0.0
        },
        {
          "id": 4,
          "value": 0.0
        },
        {
          "id": 5,
          "value": 0.5
        },
        {
          "id": 6,
          "value": 0.0
        }
      ],
      "rightModuleId": 4,
      "pos": [
        38,
        0
      ]
    },
    {
      "id": 4,
      "plugin": "Fundamental",
      "version": "1.4.0",
      "model": "VCF",
      "params": [
        {
          "id": 0,
          "value": 0.0
        },
        {
          "id": 1,
          "value": 0.5
        },
        {
          "id": 2,
          "value": 0.234000027
        },
        {
          "id": 3,
          "value": 1.0
        },
        {
          "id": 4,
          "value": 0.0
        }
      ],
      "leftModuleId": 3,
      "rightModuleId": 6,
      "pos": [
        48,
        0
      ]
    },
    {
      "id": 5,
      "plugin": "Core",
      "version": "1.1.6",
      "model": "MIDIToCVInterface",
      "params": [],
      "data": {
        "channels": 1,
        "polyMode": 0,
        "clockDivision": 24,
        "lastPitch": 8192,
        "lastMod": 0,
        "midi": {
          "driver": -11,
          "deviceName": "QWERTY keyboard (US)",
          "channel": -1
        }
      },
      "pos": [
        0,
        2
      ]
    },
    {
      "id": 6,
      "plugin": "Fundamental",
      "version": "1.4.0",
      "model": "ADSR",
      "params": [
        {
          "id": 0,
          "value": 0.393000066
        },
        {
          "id": 1,
          "value": 0.743000448
        },
        {
          "id": 2,
          "value": 1.0
        },
        {
          "id": 3,
          "value": 0.576500058
        }
      ],
      "leftModuleId": 4,
      "pos": [
        56,
        0
      ]
    },
    {
      "id": 7,
      "plugin": "Fundamental",
      "version": "1.4.0",
      "model": "Scope",
      "params": [
        {
          "id": 0,
          "value": 0.0
        },
        {
          "id": 1,
          "value": 0.0
        },
        {
          "id": 2,
          "value": 0.0
        },
        {
          "id": 3,
          "value": 0.0
        },
        {
          "id": 4,
          "value": 6.0
        },
        {
          "id": 5,
          "value": 0.0
        },
        {
          "id": 6,
          "value": -0.51000011
        },
        {
          "id": 7,
          "value": 0.0
        }
      ],
      "data": {
        "lissajous": 0,
        "external": 0
      },
      "pos": [
        128,
        3
      ]
    },
    {
      "id": 8,
      "plugin": "Core",
      "version": "1.1.6",
      "model": "Notes",
      "params": [],
      "leftModuleId": 1,
      "rightModuleId": 144,
      "text": "F = 2 x 2^(V)\n\nF = 2^(V+1)\n\nlog2(F) = V+1\nV = log2(F) - 1\n",
      "pos": [
        97,
        0
      ]
    },
    {
      "id": 106,
      "plugin": "Bogaudio",
      "version": "1.1.35",
      "model": "Bogaudio-VCO",
      "params": [
        {
          "id": 0,
          "value": 0.0
        },
        {
          "id": 1,
          "value": 0.0
        },
        {
          "id": 2,
          "value": 0.0
        },
        {
          "id": 3,
          "value": 0.0
        },
        {
          "id": 4,
          "value": 0.248999894
        },
        {
          "id": 5,
          "value": 1.0
        },
        {
          "id": 6,
          "value": 0.0
        }
      ],
      "leftModuleId": 108,
      "rightModuleId": 111,
      "data": {
        "poly_input": 0
      },
      "pos": [
        40,
        1
      ]
    },
    {
      "id": 108,
      "plugin": "Bogaudio",
      "version": "1.1.35",
      "model": "Bogaudio-LFO",
      "params": [
        {
          "id": 0,
          "value": 0.0
        },
        {
          "id": 1,
          "value": 0.0
        },
        {
          "id": 2,
          "value": 0.0
        },
        {
          "id": 3,
          "value": 0.0
        },
        {
          "id": 4,
          "value": -0.5
        },
        {
          "id": 5,
          "value": 0.5
        }
      ],
      "rightModuleId": 106,
      "data": {},
      "pos": [
        30,
        1
      ]
    },
    {
      "id": 109,
      "plugin": "ImpromptuModular",
      "version": "1.1.9",
      "model": "Clocked",
      "params": [
        {
          "id": 0,
          "value": 60.0
        },
        {
          "id": 1,
          "value": 0.0
        },
        {
          "id": 2,
          "value": 0.0
        },
        {
          "id": 3,
          "value": 0.0
        },
        {
          "id": 4,
          "value": 0.0
        },
        {
          "id": 5,
          "value": 0.0
        },
        {
          "id": 6,
          "value": 0.0
        },
        {
          "id": 7,
          "value": 0.0
        },
        {
          "id": 8,
          "value": 0.5
        },
        {
          "id": 9,
          "value": 0.854499757
        },
        {
          "id": 10,
          "value": 0.00999999978
        },
        {
          "id": 11,
          "value": 0.0859999582
        },
        {
          "id": 12,
          "value": 0.0
        },
        {
          "id": 13,
          "value": 0.0
        },
        {
          "id": 14,
          "value": 0.0
        },
        {
          "id": 15,
          "value": 0.0
        },
        {
          "id": 16,
          "value": 0.0
        },
        {
          "id": 17,
          "value": 0.0
        },
        {
          "id": 18,
          "value": 0.0
        },
        {
          "id": 19,
          "value": 0.0
        }
      ],
      "leftModuleId": 149,
      "rightModuleId": 169,
      "data": {
        "panelTheme": 0,
        "running": true,
        "displayDelayNoteMode": true,
        "bpmDetectionMode": false,
        "resetOnStartStop": 10,
        "ppqn": 24,
        "resetClockOutputsHigh": true,
        "momentaryRunInput": true,
        "clockMaster": false
      },
      "pos": [
        86,
        1
      ]
    },
    {
      "id": 111,
      "plugin": "Bogaudio",
      "version": "1.1.35",
      "model": "Bogaudio-VCF",
      "params": [
        {
          "id": 0,
          "value": 0.223609999
        },
        {
          "id": 1,
          "value": 0.0
        },
        {
          "id": 2,
          "value": 0.268499196
        },
        {
          "id": 3,
          "value": 0.0
        },
        {
          "id": 4,
          "value": 0.0
        },
        {
          "id": 5,
          "value": 0.522233009
        }
      ],
      "leftModuleId": 106,
      "rightModuleId": 140,
      "data": {
        "bandwidthMode": "pitched"
      },
      "pos": [
        50,
        1
      ]
    },
    {
      "id": 122,
      "plugin": "Alikins",
      "version": "1.0.1",
      "model": "Reference",
      "params": [],
      "pos": [
        28,
        0
      ]
    },
    {
      "id": 139,
      "plugin": "Fundamental",
      "version": "1.4.0",
      "model": "ADSR",
      "params": [
        {
          "id": 0,
          "value": 0.119280316
        },
        {
          "id": 1,
          "value": 0.369280308
        },
        {
          "id": 2,
          "value": 0.5
        },
        {
          "id": 3,
          "value": 0.82525748
        }
      ],
      "leftModuleId": 140,
      "rightModuleId": 149,
      "pos": [
        68,
        1
      ]
    },
    {
      "id": 140,
      "plugin": "Fundamental",
      "version": "1.4.0",
      "model": "Delay",
      "params": [
        {
          "id": 0,
          "value": 0.0
        },
        {
          "id": 1,
          "value": 0.0
        },
        {
          "id": 2,
          "value": 0.0
        },
        {
          "id": 3,
          "value": 1.0
        }
      ],
      "leftModuleId": 111,
      "rightModuleId": 139,
      "pos": [
        60,
        1
      ]
    },
    {
      "id": 141,
      "plugin": "Bogaudio",
      "version": "1.1.35",
      "model": "Bogaudio-FMOp",
      "params": [
        {
          "id": 0,
          "value": 0.0
        },
        {
          "id": 1,
          "value": 0.0
        },
        {
          "id": 2,
          "value": 0.0
        },
        {
          "id": 3,
          "value": 0.0
        },
        {
          "id": 4,
          "value": 0.0
        },
        {
          "id": 5,
          "value": 0.0
        },
        {
          "id": 6,
          "value": 0.100000001
        },
        {
          "id": 7,
          "value": 0.0
        },
        {
          "id": 8,
          "value": 0.949999988
        },
        {
          "id": 9,
          "value": 0.0
        },
        {
          "id": 10,
          "value": 0.0
        },
        {
          "id": 11,
          "value": 0.0
        }
      ],
      "leftModuleId": 145,
      "rightModuleId": 143,
      "data": {
        "linearLevel": false
      },
      "pos": [
        37,
        2
      ]
    },
    {
      "id": 143,
      "plugin": "Bogaudio",
      "version": "1.1.35",
      "model": "Bogaudio-FMOp",
      "params": [
        {
          "id": 0,
          "value": 0.0
        },
        {
          "id": 1,
          "value": -0.00300000003
        },
        {
          "id": 2,
          "value": 0.102000013
        },
        {
          "id": 3,
          "value": 0.0
        },
        {
          "id": 4,
          "value": 0.0
        },
        {
          "id": 5,
          "value": 0.0
        },
        {
          "id": 6,
          "value": 0.100000001
        },
        {
          "id": 7,
          "value": 0.0
        },
        {
          "id": 8,
          "value": 0.850000024
        },
        {
          "id": 9,
          "value": 0.0
        },
        {
          "id": 10,
          "value": 0.0
        },
        {
          "id": 11,
          "value": 0.0
        }
      ],
      "leftModuleId": 141,
      "rightModuleId": 146,
      "data": {
        "linearLevel": false
      },
      "pos": [
        47,
        2
      ]
    },
    {
      "id": 144,
      "plugin": "Bogaudio",
      "version": "1.1.35",
      "model": "Bogaudio-VU",
      "params": [],
      "leftModuleId": 8,
      "data": {},
      "pos": [
        113,
        0
      ]
    },
    {
      "id": 145,
      "plugin": "Bogaudio",
      "version": "1.1.35",
      "model": "Bogaudio-LFO",
      "params": [
        {
          "id": 0,
          "value": -2.03136253
        },
        {
          "id": 1,
          "value": 0.0
        },
        {
          "id": 2,
          "value": 0.0
        },
        {
          "id": 3,
          "value": 1.0
        },
        {
          "id": 4,
          "value": 1.0
        },
        {
          "id": 5,
          "value": 0.806499898
        }
      ],
      "rightModuleId": 141,
      "data": {},
      "pos": [
        27,
        2
      ]
    },
    {
      "id": 146,
      "plugin": "Bogaudio",
      "version": "1.1.35",
      "model": "Bogaudio-FMOp",
      "params": [
        {
          "id": 0,
          "value": 0.0
        },
        {
          "id": 1,
          "value": 0.0
        },
        {
          "id": 2,
          "value": 0.0
        },
        {
          "id": 3,
          "value": 0.0
        },
        {
          "id": 4,
          "value": 0.0
        },
        {
          "id": 5,
          "value": 0.0
        },
        {
          "id": 6,
          "value": 0.100000001
        },
        {
          "id": 7,
          "value": 0.0
        },
        {
          "id": 8,
          "value": 0.899999976
        },
        {
          "id": 9,
          "value": 0.0
        },
        {
          "id": 10,
          "value": 0.0
        },
        {
          "id": 11,
          "value": 0.0
        }
      ],
      "leftModuleId": 143,
      "rightModuleId": 151,
      "data": {
        "linearLevel": false
      },
      "pos": [
        57,
        2
      ]
    },
    {
      "id": 149,
      "plugin": "Bogaudio",
      "version": "1.1.35",
      "model": "Bogaudio-VCF",
      "params": [
        {
          "id": 0,
          "value": 0.24149996
        },
        {
          "id": 1,
          "value": 0.0
        },
        {
          "id": 2,
          "value": 0.0
        },
        {
          "id": 3,
          "value": 0.414999992
        },
        {
          "id": 4,
          "value": 1.0
        },
        {
          "id": 5,
          "value": 0.348233074
        }
      ],
      "leftModuleId": 139,
      "rightModuleId": 109,
      "data": {
        "bandwidthMode": "pitched"
      },
      "pos": [
        76,
        1
      ]
    },
    {
      "id": 152,
      "plugin": "Bogaudio",
      "version": "1.1.35",
      "model": "Bogaudio-EightFO",
      "params": [
        {
          "id": 0,
          "value": -0.307000071
        },
        {
          "id": 1,
          "value": 1.0
        },
        {
          "id": 2,
          "value": 0.0
        },
        {
          "id": 3,
          "value": 0.0
        },
        {
          "id": 4,
          "value": 0.0
        },
        {
          "id": 5,
          "value": 0.0
        },
        {
          "id": 6,
          "value": 0.0
        },
        {
          "id": 7,
          "value": 0.0
        },
        {
          "id": 8,
          "value": 0.0
        },
        {
          "id": 9,
          "value": 0.0
        },
        {
          "id": 10,
          "value": 0.0
        },
        {
          "id": 11,
          "value": 0.0
        },
        {
          "id": 12,
          "value": 1.0
        },
        {
          "id": 13,
          "value": 1.0
        }
      ],
      "data": {},
      "pos": [
        16,
        3
      ]
    },
    {
      "id": 153,
      "plugin": "Fundamental",
      "version": "1.4.0",
      "model": "Scope",
      "params": [
        {
          "id": 0,
          "value": -1.0
        },
        {
          "id": 1,
          "value": 0.0
        },
        {
          "id": 2,
          "value": 1.0
        },
        {
          "id": 3,
          "value": -4.97999954
        },
        {
          "id": 4,
          "value": 6.41503763
        },
        {
          "id": 5,
          "value": 0.0
        },
        {
          "id": 6,
          "value": 0.0
        },
        {
          "id": 7,
          "value": 0.0
        }
      ],
      "data": {
        "lissajous": 0,
        "external": 0
      },
      "pos": [
        80,
        3
      ]
    },
    {
      "id": 151,
      "plugin": "Bogaudio",
      "version": "1.1.35",
      "model": "Bogaudio-FMOp",
      "params": [
        {
          "id": 0,
          "value": -0.669999957
        },
        {
          "id": 1,
          "value": 0.0
        },
        {
          "id": 2,
          "value": 0.0
        },
        {
          "id": 3,
          "value": 0.0
        },
        {
          "id": 4,
          "value": 0.0
        },
        {
          "id": 5,
          "value": 0.0
        },
        {
          "id": 6,
          "value": 0.100000001
        },
        {
          "id": 7,
          "value": 0.0
        },
        {
          "id": 8,
          "value": 0.899999976
        },
        {
          "id": 9,
          "value": 0.0
        },
        {
          "id": 10,
          "value": 0.0
        },
        {
          "id": 11,
          "value": 0.0
        }
      ],
      "leftModuleId": 146,
      "rightModuleId": 158,
      "data": {
        "linearLevel": false
      },
      "pos": [
        67,
        2
      ]
    },
    {
      "id": 158,
      "plugin": "Bogaudio",
      "version": "1.1.35",
      "model": "Bogaudio-FMOp",
      "params": [
        {
          "id": 0,
          "value": 0.0
        },
        {
          "id": 1,
          "value": 0.0
        },
        {
          "id": 2,
          "value": 0.0
        },
        {
          "id": 3,
          "value": 0.0
        },
        {
          "id": 4,
          "value": 0.0
        },
        {
          "id": 5,
          "value": 0.0
        },
        {
          "id": 6,
          "value": 0.0
        },
        {
          "id": 7,
          "value": 0.0
        },
        {
          "id": 8,
          "value": 0.899999976
        },
        {
          "id": 9,
          "value": 0.0
        },
        {
          "id": 10,
          "value": 0.0
        },
        {
          "id": 11,
          "value": 0.0
        }
      ],
      "leftModuleId": 151,
      "data": {
        "linearLevel": false
      },
      "pos": [
        77,
        2
      ]
    },
    {
      "id": 160,
      "plugin": "Bogaudio",
      "version": "1.1.35",
      "model": "Bogaudio-Noise",
      "params": [],
      "leftModuleId": 169,
      "rightModuleId": 162,
      "data": {
        "poly_channels": 1
      },
      "pos": [
        116,
        1
      ]
    },
    {
      "id": 161,
      "plugin": "Bogaudio",
      "version": "1.1.35",
      "model": "Bogaudio-VCF",
      "params": [
        {
          "id": 0,
          "value": 0.139500052
        },
        {
          "id": 1,
          "value": 0.0
        },
        {
          "id": 2,
          "value": 0.0
        },
        {
          "id": 3,
          "value": 0.557999909
        },
        {
          "id": 4,
          "value": 0.0
        },
        {
          "id": 5,
          "value": 0.522233009
        }
      ],
      "leftModuleId": 167,
      "rightModuleId": 164,
      "data": {
        "bandwidthMode": "pitched"
      },
      "pos": [
        133,
        1
      ]
    },
    {
      "id": 162,
      "plugin": "Fundamental",
      "version": "1.4.0",
      "model": "ADSR",
      "params": [
        {
          "id": 0,
          "value": 0.250499934
        },
        {
          "id": 1,
          "value": 1.0
        },
        {
          "id": 2,
          "value": 0.0
        },
        {
          "id": 3,
          "value": 0.367500037
        }
      ],
      "leftModuleId": 160,
      "rightModuleId": 163,
      "pos": [
        119,
        1
      ]
    },
    {
      "id": 163,
      "plugin": "Bogaudio",
      "version": "1.1.35",
      "model": "Bogaudio-LVCF",
      "params": [
        {
          "id": 0,
          "value": 0.139642403
        },
        {
          "id": 1,
          "value": 0.0
        },
        {
          "id": 2,
          "value": 0.525000036
        },
        {
          "id": 3,
          "value": 0.0
        }
      ],
      "leftModuleId": 162,
      "rightModuleId": 167,
      "data": {
        "poles": 4,
        "bandwidthMode": "pitched"
      },
      "pos": [
        127,
        1
      ]
    },
    {
      "id": 164,
      "plugin": "Bogaudio",
      "version": "1.1.35",
      "model": "Bogaudio-VCO",
      "params": [
        {
          "id": 0,
          "value": -2.16300106
        },
        {
          "id": 1,
          "value": 0.0
        },
        {
          "id": 2,
          "value": 0.0
        },
        {
          "id": 3,
          "value": 0.0
        },
        {
          "id": 4,
          "value": 0.367500007
        },
        {
          "id": 5,
          "value": 1.0
        },
        {
          "id": 6,
          "value": 0.0
        }
      ],
      "leftModuleId": 161,
      "rightModuleId": 165,
      "data": {
        "poly_input": 0
      },
      "pos": [
        143,
        1
      ]
    },
    {
      "id": 165,
      "plugin": "Bogaudio",
      "version": "1.1.35",
      "model": "Bogaudio-LFO",
      "params": [
        {
          "id": 0,
          "value": 4.05610085
        },
        {
          "id": 1,
          "value": 0.0
        },
        {
          "id": 2,
          "value": 0.0
        },
        {
          "id": 3,
          "value": 0.0
        },
        {
          "id": 4,
          "value": -0.782999933
        },
        {
          "id": 5,
          "value": 1.0
        }
      ],
      "leftModuleId": 164,
      "data": {},
      "pos": [
        153,
        1
      ]
    },
    {
      "id": 167,
      "plugin": "Bogaudio",
      "version": "1.1.35",
      "model": "Bogaudio-Offset",
      "params": [
        {
          "id": 0,
          "value": -0.40199995
        },
        {
          "id": 1,
          "value": 0.316229999
        }
      ],
      "leftModuleId": 163,
      "rightModuleId": 161,
      "data": {
        "disableOutputLimit": false
      },
      "pos": [
        130,
        1
      ]
    },
    {
      "id": 169,
      "plugin": "ImpromptuModular",
      "version": "1.1.9",
      "model": "Clocked-Clkd",
      "params": [
        {
          "id": 0,
          "value": 0.0
        },
        {
          "id": 1,
          "value": -5.0
        },
        {
          "id": 2,
          "value": -2.0
        },
        {
          "id": 3,
          "value": 122.0
        },
        {
          "id": 4,
          "value": 0.0
        },
        {
          "id": 5,
          "value": 0.0
        },
        {
          "id": 6,
          "value": 0.0
        },
        {
          "id": 7,
          "value": 0.0
        },
        {
          "id": 8,
          "value": 0.0
        },
        {
          "id": 9,
          "value": 0.0
        }
      ],
      "leftModuleId": 109,
      "rightModuleId": 160,
      "data": {
        "panelTheme": 0,
        "running": true,
        "bpmDetectionMode": false,
        "resetOnStartStop": 2,
        "ppqn": 24,
        "resetClockOutputsHigh": false,
        "momentaryRunInput": true,
        "displayIndex": 2,
        "trigOuts": [
          false,
          false,
          true,
          true
        ],
        "clockMaster": -1
      },
      "pos": [
        106,
        1
      ]
    },
    {
      "id": 171,
      "plugin": "Fundamental",
      "version": "1.4.0",
      "model": "ADSR",
      "params": [
        {
          "id": 0,
          "value": 0.5
        },
        {
          "id": 1,
          "value": 0.82525748
        },
        {
          "id": 2,
          "value": 0.800000012
        },
        {
          "id": 3,
          "value": 0.75
        }
      ],
      "rightModuleId": 172,
      "pos": [
        38,
        3
      ]
    },
    {
      "id": 172,
      "plugin": "Alikins",
      "version": "1.0.1",
      "model": "Reference",
      "params": [],
      "leftModuleId": 171,
      "rightModuleId": 173,
      "pos": [
        46,
        3
      ]
    },
    {
      "id": 173,
      "plugin": "Bogaudio",
      "version": "1.1.35",
      "model": "Bogaudio-RGate",
      "params": [
        {
          "id": 0,
          "value": 0.800000012
        },
        {
          "id": 1,
          "value": 0.127500027
        },
        {
          "id": 2,
          "value": 0.0
        }
      ],
      "leftModuleId": 172,
      "rightModuleId": 174,
      "data": {
        "reset_mode": 0,
        "initial_clock_seconds": 0.5,
        "poly_input": 4
      },
      "pos": [
        48,
        3
      ]
    },
    {
      "id": 174,
      "plugin": "Bogaudio",
      "version": "1.1.35",
      "model": "Bogaudio-Offset",
      "params": [
        {
          "id": 0,
          "value": 0.0
        },
        {
          "id": 1,
          "value": 0.346410155
        }
      ],
      "leftModuleId": 173,
      "data": {
        "disableOutputLimit": false
      },
      "pos": [
        53,
        3
      ]
    }
  ],
  "cables": [
    {
      "id": 267,
      "outputModuleId": 5,
      "outputId": 0,
      "inputModuleId": 3,
      "inputId": 0,
      "color": "#c91847"
    },
    {
      "id": 268,
      "outputModuleId": 3,
      "outputId": 2,
      "inputModuleId": 4,
      "inputId": 3,
      "color": "#0c8e15"
    },
    {
      "id": 269,
      "outputModuleId": 2,
      "outputId": 0,
      "inputModuleId": 1,
      "inputId": 0,
      "color": "#0986ad"
    },
    {
      "id": 270,
      "outputModuleId": 2,
      "outputId": 0,
      "inputModuleId": 1,
      "inputId": 1,
      "color": "#c9b70e"
    },
    {
      "id": 271,
      "outputModuleId": 6,
      "outputId": 0,
      "inputModuleId": 4,
      "inputId": 0,
      "color": "#c91847"
    },
    {
      "id": 272,
      "outputModuleId": 5,
      "outputId": 1,
      "inputModuleId": 6,
      "inputId": 4,
      "color": "#c9b70e"
    },
    {
      "id": 276,
      "outputModuleId": 5,
      "outputId": 6,
      "inputModuleId": 6,
      "inputId": 5,
      "color": "#c91847"
    },
    {
      "id": 278,
      "outputModuleId": 106,
      "outputId": 3,
      "inputModuleId": 111,
      "inputId": 3,
      "color": "#c91847"
    },
    {
      "id": 392,
      "outputModuleId": 109,
      "outputId": 2,
      "inputModuleId": 108,
      "inputId": 5,
      "color": "#0986ad"
    },
    {
      "id": 451,
      "outputModuleId": 108,
      "outputId": 4,
      "inputModuleId": 106,
      "inputId": 0,
      "color": "#c91847"
    },
    {
      "id": 419,
      "outputModuleId": 111,
      "outputId": 0,
      "inputModuleId": 140,
      "inputId": 4,
      "color": "#c91847"
    },
    {
      "id": 455,
      "outputModuleId": 141,
      "outputId": 0,
      "inputModuleId": 149,
      "inputId": 3,
      "color": "#c91847"
    },
    {
      "id": 497,
      "outputModuleId": 143,
      "outputId": 0,
      "inputModuleId": 141,
      "inputId": 6,
      "color": "#0986ad"
    },
    {
      "id": 459,
      "outputModuleId": 146,
      "outputId": 0,
      "inputModuleId": 143,
      "inputId": 6,
      "color": "#c91847"
    },
    {
      "id": 481,
      "outputModuleId": 151,
      "outputId": 0,
      "inputModuleId": 146,
      "inputId": 6,
      "color": "#0c8e15"
    },
    {
      "id": 507,
      "outputModuleId": 158,
      "outputId": 0,
      "inputModuleId": 151,
      "inputId": 6,
      "color": "#0986ad"
    },
    {
      "id": 552,
      "outputModuleId": 160,
      "outputId": 1,
      "inputModuleId": 163,
      "inputId": 0,
      "color": "#0986ad"
    },
    {
      "id": 555,
      "outputModuleId": 165,
      "outputId": 4,
      "inputModuleId": 164,
      "inputId": 3,
      "color": "#0986ad"
    },
    {
      "id": 559,
      "outputModuleId": 109,
      "outputId": 1,
      "inputModuleId": 162,
      "inputId": 4,
      "color": "#0986ad"
    },
    {
      "id": 558,
      "outputModuleId": 162,
      "outputId": 0,
      "inputModuleId": 2,
      "inputId": 6,
      "color": "#c91847"
    },
    {
      "id": 554,
      "outputModuleId": 164,
      "outputId": 1,
      "inputModuleId": 167,
      "inputId": 2,
      "color": "#c91847"
    },
    {
      "id": 561,
      "outputModuleId": 109,
      "outputId": 2,
      "inputModuleId": 162,
      "inputId": 5,
      "color": "#0c8e15"
    },
    {
      "id": 565,
      "outputModuleId": 167,
      "outputId": 0,
      "inputModuleId": 162,
      "inputId": 1,
      "color": "#c91847"
    },
    {
      "id": 567,
      "outputModuleId": 160,
      "outputId": 0,
      "inputModuleId": 165,
      "inputId": 2,
      "color": "#c9b70e"
    },
    {
      "id": 574,
      "outputModuleId": 169,
      "outputId": 1,
      "inputModuleId": 139,
      "inputId": 4,
      "color": "#c9b70e"
    },
    {
      "id": 588,
      "outputModuleId": 169,
      "outputId": 3,
      "inputModuleId": 139,
      "inputId": 5,
      "color": "#0c8e15"
    },
    {
      "id": 592,
      "outputModuleId": 109,
      "outputId": 6,
      "inputModuleId": 169,
      "inputId": 2,
      "color": "#0c8e15"
    },
    {
      "id": 591,
      "outputModuleId": 109,
      "outputId": 4,
      "inputModuleId": 169,
      "inputId": 0,
      "color": "#c9b70e"
    },
    {
      "id": 544,
      "outputModuleId": 163,
      "outputId": 0,
      "inputModuleId": 2,
      "inputId": 2,
      "color": "#c91847"
    },
    {
      "id": 471,
      "outputModuleId": 149,
      "outputId": 0,
      "inputModuleId": 2,
      "inputId": 1,
      "color": "#0986ad"
    },
    {
      "id": 631,
      "outputModuleId": 169,
      "outputId": 2,
      "inputModuleId": 145,
      "inputId": 5,
      "color": "#0c8e15"
    },
    {
      "id": 636,
      "outputModuleId": 169,
      "outputId": 2,
      "inputModuleId": 173,
      "inputId": 4,
      "color": "#c9b70e"
    },
    {
      "id": 640,
      "outputModuleId": 173,
      "outputId": 0,
      "inputModuleId": 171,
      "inputId": 4,
      "color": "#c91847"
    },
    {
      "id": 647,
      "outputModuleId": 171,
      "outputId": 0,
      "inputModuleId": 174,
      "inputId": 2,
      "color": "#0c8e15"
    },
    {
      "id": 649,
      "outputModuleId": 174,
      "outputId": 0,
      "inputModuleId": 151,
      "inputId": 3,
      "color": "#c9b70e"
    },
    {
      "id": 652,
      "outputModuleId": 174,
      "outputId": 0,
      "inputModuleId": 153,
      "inputId": 0,
      "color": "#0986ad"
    },
    {
      "id": 653,
      "outputModuleId": 174,
      "outputId": 0,
      "inputModuleId": 143,
      "inputId": 3,
      "color": "#c9b70e"
    },
    {
      "id": 654,
      "outputModuleId": 174,
      "outputId": 0,
      "inputModuleId": 146,
      "inputId": 3,
      "color": "#0c8e15"
    },
    {
      "id": 655,
      "outputModuleId": 174,
      "outputId": 0,
      "inputModuleId": 158,
      "inputId": 3,
      "color": "#c91847"
    }
  ]
}