{
  "version": "1.1.6",
  "modules": [
    {
      "id": 1,
      "plugin": "Core",
      "version": "1.1.6",
      "model": "AudioInterface",
      "params": [],
      "leftModuleId": 2,
      "data": {
        "audio": {
          "driver": 4,
          "deviceName": "system",
          "offset": 0,
          "maxChannels": 8,
          "sampleRate": 48000,
          "blockSize": 1024
        }
      },
      "pos": [
        91,
        0
      ]
    },
    {
      "id": 2,
      "plugin": "Fundamental",
      "version": "1.4.0",
      "model": "VCMixer",
      "params": [
        {
          "id": 0,
          "value": 0.707945764
        },
        {
          "id": 1,
          "value": 0.501187205
        },
        {
          "id": 2,
          "value": 0.501187205
        },
        {
          "id": 3,
          "value": 1.0
        },
        {
          "id": 4,
          "value": 1.0
        }
      ],
      "leftModuleId": 68,
      "rightModuleId": 1,
      "pos": [
        81,
        0
      ]
    },
    {
      "id": 5,
      "plugin": "Core",
      "version": "1.1.6",
      "model": "MIDIToCVInterface",
      "params": [],
      "rightModuleId": 56,
      "data": {
        "channels": 1,
        "polyMode": 0,
        "clockDivision": 24,
        "lastPitch": 8192,
        "lastMod": 0,
        "midi": {
          "driver": -11,
          "deviceName": "QWERTY keyboard (US)",
          "channel": -1
        }
      },
      "pos": [
        13,
        0
      ]
    },
    {
      "id": 6,
      "plugin": "Fundamental",
      "version": "1.4.0",
      "model": "ADSR",
      "params": [
        {
          "id": 0,
          "value": 0.452500045
        },
        {
          "id": 1,
          "value": 0.374500006
        },
        {
          "id": 2,
          "value": 1.0
        },
        {
          "id": 3,
          "value": 0.5
        }
      ],
      "leftModuleId": 79,
      "pos": [
        60,
        1
      ]
    },
    {
      "id": 9,
      "plugin": "Sha-Bang-Modules",
      "version": "1.2.1",
      "model": "PolyrhythmClock",
      "params": [
        {
          "id": 0,
          "value": 0.0
        },
        {
          "id": 1,
          "value": 0.0
        },
        {
          "id": 2,
          "value": 1.0
        },
        {
          "id": 3,
          "value": 1.0
        },
        {
          "id": 4,
          "value": 1.0
        },
        {
          "id": 5,
          "value": 1.0
        },
        {
          "id": 6,
          "value": 1.0
        },
        {
          "id": 7,
          "value": 1.0
        },
        {
          "id": 8,
          "value": 1.0
        },
        {
          "id": 9,
          "value": 1.0
        },
        {
          "id": 10,
          "value": 0.951999664
        }
      ],
      "leftModuleId": 96,
      "data": {
        "clockOn": true,
        "extmode": 0
      },
      "pos": [
        13,
        1
      ]
    },
    {
      "id": 26,
      "plugin": "FrozenWasteland",
      "version": "1.16.4",
      "model": "BPMLFO",
      "params": [
        {
          "id": 0,
          "value": 2.0
        },
        {
          "id": 1,
          "value": 0.0
        },
        {
          "id": 2,
          "value": 4.0
        },
        {
          "id": 3,
          "value": 0.0
        },
        {
          "id": 4,
          "value": 0.0
        },
        {
          "id": 5,
          "value": 0.0
        },
        {
          "id": 6,
          "value": 0.0
        },
        {
          "id": 7,
          "value": 1.0
        },
        {
          "id": 8,
          "value": 1.0
        },
        {
          "id": 9,
          "value": 0.0
        }
      ],
      "rightModuleId": 69,
      "pos": [
        21,
        1
      ]
    },
    {
      "id": 45,
      "plugin": "rcm",
      "version": "1.1.0",
      "model": "rcm-CVTgl",
      "params": [
        {
          "id": 0,
          "value": 1.0
        }
      ],
      "leftModuleId": 65,
      "data": {
        "backgroundHue": 0.754000008,
        "backgroundSaturation": 1.0,
        "backgroundLuminosity": 0.579999983
      },
      "text": "ref 10v\nfor\nctrl",
      "pos": [
        35,
        0
      ]
    },
    {
      "id": 55,
      "plugin": "computerscare",
      "version": "1.3.0",
      "model": "computerscare-debug",
      "params": [
        {
          "id": 0,
          "value": 0.0
        },
        {
          "id": 1,
          "value": 0.0
        },
        {
          "id": 2,
          "value": 0.0
        },
        {
          "id": 3,
          "value": 0.0
        },
        {
          "id": 4,
          "value": 2.0
        },
        {
          "id": 5,
          "value": 1.0
        }
      ],
      "leftModuleId": 56,
      "rightModuleId": 65,
      "outputRange": 0,
      "lines": [
        0.0,
        0.0,
        0.0,
        0.0,
        0.0,
        0.0,
        0.0,
        0.0,
        0.0,
        0.0,
        0.0,
        0.0,
        0.0,
        0.0,
        0.0,
        0.0
      ],
      "pos": [
        24,
        0
      ]
    },
    {
      "id": 56,
      "plugin": "Fundamental",
      "version": "1.4.0",
      "model": "Octave",
      "params": [
        {
          "id": 0,
          "value": 0.0
        }
      ],
      "leftModuleId": 5,
      "rightModuleId": 55,
      "pos": [
        21,
        0
      ]
    },
    {
      "id": 59,
      "plugin": "rcm",
      "version": "1.1.0",
      "model": "rcm-CV0to10",
      "params": [
        {
          "id": 0,
          "value": 5.0
        }
      ],
      "rightModuleId": 62,
      "data": {
        "backgroundHue": 0.754000008,
        "backgroundSaturation": 1.0,
        "backgroundLuminosity": 0.579999983
      },
      "text": "mul\nfor\nPCM MOD\nNES",
      "pos": [
        36,
        1
      ]
    },
    {
      "id": 62,
      "plugin": "Fundamental",
      "version": "1.4.0",
      "model": "VCA-1",
      "params": [
        {
          "id": 0,
          "value": 1.0
        },
        {
          "id": 1,
          "value": 1.0
        }
      ],
      "leftModuleId": 59,
      "pos": [
        41,
        1
      ]
    },
    {
      "id": 63,
      "plugin": "KautenjaDSP-PotatoChips",
      "version": "1.9.0",
      "model": "SN76489",
      "params": [
        {
          "id": 0,
          "value": -2.5
        },
        {
          "id": 1,
          "value": -2.5
        },
        {
          "id": 2,
          "value": -2.5
        },
        {
          "id": 3,
          "value": 1.0
        },
        {
          "id": 4,
          "value": -1.0
        },
        {
          "id": 5,
          "value": -1.0
        },
        {
          "id": 6,
          "value": 0.0
        },
        {
          "id": 7,
          "value": 1.0
        },
        {
          "id": 8,
          "value": 0.0
        },
        {
          "id": 9,
          "value": 0.0
        },
        {
          "id": 10,
          "value": 0.0
        },
        {
          "id": 11,
          "value": 7.0
        }
      ],
      "rightModuleId": 64,
      "pos": [
        50,
        2
      ]
    },
    {
      "id": 64,
      "plugin": "Fundamental",
      "version": "1.4.0",
      "model": "ADSR",
      "params": [
        {
          "id": 0,
          "value": 0.25
        },
        {
          "id": 1,
          "value": 0.488560617
        },
        {
          "id": 2,
          "value": 0.99849999
        },
        {
          "id": 3,
          "value": 0.0
        }
      ],
      "leftModuleId": 63,
      "pos": [
        60,
        2
      ]
    },
    {
      "id": 65,
      "plugin": "rcm",
      "version": "1.1.0",
      "model": "rcm-CVTgl",
      "params": [
        {
          "id": 0,
          "value": 0.0
        }
      ],
      "leftModuleId": 55,
      "rightModuleId": 45,
      "data": {
        "backgroundHue": 0.754000008,
        "backgroundSaturation": 1.0,
        "backgroundLuminosity": 0.579999983
      },
      "text": "ref 0V\nfor\nctrl",
      "pos": [
        30,
        0
      ]
    },
    {
      "id": 68,
      "plugin": "rcm",
      "version": "1.1.0",
      "model": "rcm-CVTgl",
      "params": [
        {
          "id": 0,
          "value": 0.0
        }
      ],
      "rightModuleId": 2,
      "data": {
        "backgroundHue": 0.754000008,
        "backgroundSaturation": 1.0,
        "backgroundLuminosity": 0.579999983
      },
      "text": "output\nsound\nwhen\non",
      "pos": [
        76,
        0
      ]
    },
    {
      "id": 69,
      "plugin": "FrozenWasteland",
      "version": "1.16.4",
      "model": "BPMLFOPhaseExpander",
      "params": [
        {
          "id": 0,
          "value": 4.0
        },
        {
          "id": 1,
          "value": 0.0
        },
        {
          "id": 2,
          "value": 0.0
        },
        {
          "id": 3,
          "value": 1.0
        }
      ],
      "leftModuleId": 26,
      "pos": [
        29,
        1
      ]
    },
    {
      "id": 72,
      "plugin": "FrozenWasteland",
      "version": "1.16.4",
      "model": "BPMLFO",
      "params": [
        {
          "id": 0,
          "value": 1.0
        },
        {
          "id": 1,
          "value": 0.0
        },
        {
          "id": 2,
          "value": 1.0
        },
        {
          "id": 3,
          "value": 0.0
        },
        {
          "id": 4,
          "value": 0.0
        },
        {
          "id": 5,
          "value": 0.0
        },
        {
          "id": 6,
          "value": 0.0
        },
        {
          "id": 7,
          "value": 1.0
        },
        {
          "id": 8,
          "value": 1.0
        },
        {
          "id": 9,
          "value": 1.0
        }
      ],
      "leftModuleId": 88,
      "rightModuleId": 73,
      "pos": [
        11,
        3
      ]
    },
    {
      "id": 73,
      "plugin": "FrozenWasteland",
      "version": "1.16.4",
      "model": "BPMLFOPhaseExpander",
      "params": [
        {
          "id": 0,
          "value": 4.0
        },
        {
          "id": 1,
          "value": 0.0
        },
        {
          "id": 2,
          "value": 0.0
        },
        {
          "id": 3,
          "value": 1.0
        }
      ],
      "leftModuleId": 72,
      "rightModuleId": 77,
      "pos": [
        19,
        3
      ]
    },
    {
      "id": 77,
      "plugin": "rcm",
      "version": "1.1.0",
      "model": "rcm-CVS0to10",
      "params": [
        {
          "id": 0,
          "value": 0.0
        },
        {
          "id": 1,
          "value": 9.39999962
        },
        {
          "id": 2,
          "value": 0.0
        },
        {
          "id": 3,
          "value": 5.25000095
        }
      ],
      "leftModuleId": 73,
      "rightModuleId": 82,
      "data": {
        "backgroundHue": 0.754000008,
        "backgroundSaturation": 1.0,
        "backgroundLuminosity": 0.579999983
      },
      "text": "duty\ncycle\nset\n(pass VC)",
      "pos": [
        23,
        3
      ]
    },
    {
      "id": 79,
      "plugin": "KautenjaDSP-PotatoChips",
      "version": "1.9.0",
      "model": "2A03",
      "params": [
        {
          "id": 0,
          "value": 0.0
        },
        {
          "id": 1,
          "value": 0.0
        },
        {
          "id": 2,
          "value": 0.0
        },
        {
          "id": 3,
          "value": 7.0
        },
        {
          "id": 4,
          "value": 0.0
        },
        {
          "id": 5,
          "value": 0.0
        },
        {
          "id": 6,
          "value": 0.0
        },
        {
          "id": 7,
          "value": 0.0
        },
        {
          "id": 8,
          "value": 1.0
        },
        {
          "id": 9,
          "value": 0.0
        },
        {
          "id": 10,
          "value": 10.0
        },
        {
          "id": 11,
          "value": 10.0
        },
        {
          "id": 12,
          "value": 2.0
        },
        {
          "id": 13,
          "value": 2.0
        }
      ],
      "rightModuleId": 6,
      "pos": [
        50,
        1
      ]
    },
    {
      "id": 82,
      "plugin": "MockbaModular",
      "version": "1.2.1",
      "model": "Comparator",
      "params": [],
      "leftModuleId": 77,
      "rightModuleId": 83,
      "pos": [
        28,
        3
      ]
    },
    {
      "id": 83,
      "plugin": "MockbaModular",
      "version": "1.2.1",
      "model": "Comparator",
      "params": [],
      "leftModuleId": 82,
      "rightModuleId": 84,
      "pos": [
        30,
        3
      ]
    },
    {
      "id": 84,
      "plugin": "MockbaModular",
      "version": "1.2.1",
      "model": "Comparator",
      "params": [],
      "leftModuleId": 83,
      "rightModuleId": 85,
      "pos": [
        32,
        3
      ]
    },
    {
      "id": 85,
      "plugin": "MockbaModular",
      "version": "1.2.1",
      "model": "Comparator",
      "params": [],
      "leftModuleId": 84,
      "rightModuleId": 87,
      "pos": [
        34,
        3
      ]
    },
    {
      "id": 87,
      "plugin": "Core",
      "version": "1.1.6",
      "model": "Notes",
      "params": [],
      "leftModuleId": 85,
      "text": "this line takes a BPM LFO  in unipolar mode and generates 10V pulses when they are on top.\n  \nby setting the CVS 0-10 sliders  you can make longer gates.\nwhen at 0 the gate will always be on when at 10 it will always be off and inbetween it's adjusted like a sine.\n\nthe defualt is 5V which means a 50% duty cycle.\n\nby default we generate 4 gates but you can easily expand this with another CVS and more comparators.\n",
      "pos": [
        36,
        3
      ]
    },
    {
      "id": 88,
      "plugin": "Stoermelder-P1",
      "version": "1.8.0",
      "model": "Strip",
      "params": [
        {
          "id": 0,
          "value": 0.0
        },
        {
          "id": 1,
          "value": 0.0
        },
        {
          "id": 2,
          "value": 0.0
        },
        {
          "id": 3,
          "value": 0.0
        },
        {
          "id": 4,
          "value": 0.0
        }
      ],
      "rightModuleId": 72,
      "data": {
        "panelTheme": 0,
        "mode": 1,
        "onMode": 0,
        "excludedParams": [],
        "randomExcl": 1,
        "randomParamsOnly": false
      },
      "pos": [
        8,
        3
      ]
    },
    {
      "id": 89,
      "plugin": "Fundamental",
      "version": "1.4.0",
      "model": "SequentialSwitch1",
      "params": [
        {
          "id": 0,
          "value": 0.0
        }
      ],
      "leftModuleId": 95,
      "rightModuleId": 90,
      "pos": [
        77,
        3
      ]
    },
    {
      "id": 90,
      "plugin": "Fundamental",
      "version": "1.4.0",
      "model": "VCA-1",
      "params": [
        {
          "id": 0,
          "value": 0.25
        },
        {
          "id": 1,
          "value": 1.0
        }
      ],
      "leftModuleId": 89,
      "rightModuleId": 91,
      "pos": [
        80,
        3
      ]
    },
    {
      "id": 91,
      "plugin": "Fundamental",
      "version": "1.4.0",
      "model": "VCA-1",
      "params": [
        {
          "id": 0,
          "value": 0.5
        },
        {
          "id": 1,
          "value": 1.0
        }
      ],
      "leftModuleId": 90,
      "rightModuleId": 92,
      "pos": [
        83,
        3
      ]
    },
    {
      "id": 92,
      "plugin": "Fundamental",
      "version": "1.4.0",
      "model": "VCA-1",
      "params": [
        {
          "id": 0,
          "value": 0.75
        },
        {
          "id": 1,
          "value": 1.0
        }
      ],
      "leftModuleId": 91,
      "rightModuleId": 93,
      "pos": [
        86,
        3
      ]
    },
    {
      "id": 93,
      "plugin": "Fundamental",
      "version": "1.4.0",
      "model": "VCA-1",
      "params": [
        {
          "id": 0,
          "value": 1.0
        },
        {
          "id": 1,
          "value": 1.0
        }
      ],
      "leftModuleId": 92,
      "rightModuleId": 94,
      "pos": [
        89,
        3
      ]
    },
    {
      "id": 94,
      "plugin": "Fundamental",
      "version": "1.4.0",
      "model": "Merge",
      "params": [],
      "leftModuleId": 93,
      "rightModuleId": 98,
      "data": {
        "channels": -1
      },
      "pos": [
        92,
        3
      ]
    },
    {
      "id": 95,
      "plugin": "rcm",
      "version": "1.1.0",
      "model": "rcm-CV0to10",
      "params": [
        {
          "id": 0,
          "value": 1.0
        }
      ],
      "rightModuleId": 89,
      "data": {
        "backgroundHue": 0.754000008,
        "backgroundSaturation": 1.0,
        "backgroundLuminosity": 0.579999983
      },
      "text": "source\nnote voltage",
      "pos": [
        72,
        3
      ]
    },
    {
      "id": 96,
      "plugin": "Fundamental",
      "version": "1.4.0",
      "model": "Scope",
      "params": [
        {
          "id": 0,
          "value": 0.0
        },
        {
          "id": 1,
          "value": 0.0
        },
        {
          "id": 2,
          "value": 0.0
        },
        {
          "id": 3,
          "value": 0.0
        },
        {
          "id": 4,
          "value": 14.0
        },
        {
          "id": 5,
          "value": 0.0
        },
        {
          "id": 6,
          "value": 0.0
        },
        {
          "id": 7,
          "value": 0.0
        }
      ],
      "rightModuleId": 9,
      "data": {
        "lissajous": 0,
        "external": 0
      },
      "pos": [
        0,
        1
      ]
    },
    {
      "id": 97,
      "plugin": "Fundamental",
      "version": "1.4.0",
      "model": "Scope",
      "params": [
        {
          "id": 0,
          "value": 0.0
        },
        {
          "id": 1,
          "value": 0.0
        },
        {
          "id": 2,
          "value": 0.0
        },
        {
          "id": 3,
          "value": 0.0
        },
        {
          "id": 4,
          "value": 7.01449966
        },
        {
          "id": 5,
          "value": 0.0
        },
        {
          "id": 6,
          "value": 0.0
        },
        {
          "id": 7,
          "value": 0.0
        }
      ],
      "data": {
        "lissajous": 0,
        "external": 0
      },
      "pos": [
        108,
        3
      ]
    },
    {
      "id": 98,
      "plugin": "Fundamental",
      "version": "1.4.0",
      "model": "Quantizer",
      "params": [],
      "leftModuleId": 94,
      "data": {
        "enabledNotes": [
          true,
          true,
          true,
          true,
          true,
          true,
          true,
          true,
          false,
          false,
          true,
          true
        ]
      },
      "pos": [
        97,
        3
      ]
    },
    {
      "id": 99,
      "plugin": "Fundamental",
      "version": "1.4.0",
      "model": "Merge",
      "params": [],
      "rightModuleId": 104,
      "data": {
        "channels": -1
      },
      "pos": [
        54,
        3
      ]
    },
    {
      "id": 100,
      "plugin": "MockbaModular",
      "version": "1.2.1",
      "model": "Comparator",
      "params": [],
      "leftModuleId": 103,
      "pos": [
        68,
        3
      ]
    },
    {
      "id": 102,
      "plugin": "computerscare",
      "version": "1.3.0",
      "model": "computerscare-debug",
      "params": [
        {
          "id": 0,
          "value": 0.0
        },
        {
          "id": 1,
          "value": 0.0
        },
        {
          "id": 2,
          "value": 0.0
        },
        {
          "id": 3,
          "value": 0.0
        },
        {
          "id": 4,
          "value": 2.0
        },
        {
          "id": 5,
          "value": 2.0
        }
      ],
      "outputRange": 0,
      "lines": [
        10.0,
        10.0,
        0.0,
        0.0,
        0.0,
        0.0,
        0.0,
        0.0,
        0.0,
        0.0,
        0.0,
        0.0,
        0.0,
        0.0,
        0.0,
        0.0
      ],
      "pos": [
        65,
        4
      ]
    },
    {
      "id": 103,
      "plugin": "rcm",
      "version": "1.1.0",
      "model": "rcm-CV0to10",
      "params": [
        {
          "id": 0,
          "value": 10.0
        }
      ],
      "rightModuleId": 100,
      "data": {
        "backgroundHue": 0.754000008,
        "backgroundSaturation": 1.0,
        "backgroundLuminosity": 0.579999983
      },
      "text": "",
      "pos": [
        63,
        3
      ]
    },
    {
      "id": 104,
      "plugin": "Fundamental",
      "version": "1.4.0",
      "model": "Sum",
      "params": [
        {
          "id": 0,
          "value": 1.0
        }
      ],
      "leftModuleId": 99,
      "pos": [
        59,
        3
      ]
    }
  ],
  "cables": [
    {
      "id": 2,
      "outputModuleId": 2,
      "outputId": 0,
      "inputModuleId": 1,
      "inputId": 0,
      "color": "#0986ad"
    },
    {
      "id": 35,
      "outputModuleId": 6,
      "outputId": 0,
      "inputModuleId": 2,
      "inputId": 5,
      "color": "#c91847"
    },
    {
      "id": 133,
      "outputModuleId": 5,
      "outputId": 0,
      "inputModuleId": 56,
      "inputId": 0,
      "color": "#0986ad"
    },
    {
      "id": 143,
      "outputModuleId": 59,
      "outputId": 0,
      "inputModuleId": 62,
      "inputId": 0,
      "color": "#0986ad"
    },
    {
      "id": 165,
      "outputModuleId": 68,
      "outputId": 0,
      "inputModuleId": 2,
      "inputId": 0,
      "color": "#c91847"
    },
    {
      "id": 188,
      "outputModuleId": 69,
      "outputId": 0,
      "inputModuleId": 62,
      "inputId": 1,
      "color": "#c91847"
    },
    {
      "id": 3,
      "outputModuleId": 2,
      "outputId": 0,
      "inputModuleId": 1,
      "inputId": 1,
      "color": "#c9b70e"
    },
    {
      "id": 195,
      "outputModuleId": 77,
      "outputId": 0,
      "inputModuleId": 82,
      "inputId": 1,
      "color": "#0986ad"
    },
    {
      "id": 196,
      "outputModuleId": 73,
      "outputId": 0,
      "inputModuleId": 82,
      "inputId": 0,
      "color": "#c9b70e"
    },
    {
      "id": 198,
      "outputModuleId": 73,
      "outputId": 1,
      "inputModuleId": 83,
      "inputId": 0,
      "color": "#0986ad"
    },
    {
      "id": 199,
      "outputModuleId": 77,
      "outputId": 1,
      "inputModuleId": 83,
      "inputId": 1,
      "color": "#c9b70e"
    },
    {
      "id": 201,
      "outputModuleId": 73,
      "outputId": 3,
      "inputModuleId": 85,
      "inputId": 0,
      "color": "#0986ad"
    },
    {
      "id": 202,
      "outputModuleId": 77,
      "outputId": 2,
      "inputModuleId": 84,
      "inputId": 1,
      "color": "#c9b70e"
    },
    {
      "id": 203,
      "outputModuleId": 77,
      "outputId": 3,
      "inputModuleId": 85,
      "inputId": 1,
      "color": "#0c8e15"
    },
    {
      "id": 209,
      "outputModuleId": 73,
      "outputId": 2,
      "inputModuleId": 84,
      "inputId": 0,
      "color": "#0c8e15"
    },
    {
      "id": 213,
      "outputModuleId": 9,
      "outputId": 0,
      "inputModuleId": 89,
      "inputId": 0,
      "color": "#c91847"
    },
    {
      "id": 214,
      "outputModuleId": 89,
      "outputId": 0,
      "inputModuleId": 90,
      "inputId": 1,
      "color": "#0986ad"
    },
    {
      "id": 215,
      "outputModuleId": 89,
      "outputId": 1,
      "inputModuleId": 91,
      "inputId": 1,
      "color": "#c9b70e"
    },
    {
      "id": 216,
      "outputModuleId": 89,
      "outputId": 2,
      "inputModuleId": 92,
      "inputId": 1,
      "color": "#0c8e15"
    },
    {
      "id": 217,
      "outputModuleId": 89,
      "outputId": 3,
      "inputModuleId": 93,
      "inputId": 1,
      "color": "#c91847"
    },
    {
      "id": 218,
      "outputModuleId": 90,
      "outputId": 0,
      "inputModuleId": 94,
      "inputId": 0,
      "color": "#0c8e15"
    },
    {
      "id": 219,
      "outputModuleId": 91,
      "outputId": 0,
      "inputModuleId": 94,
      "inputId": 1,
      "color": "#c91847"
    },
    {
      "id": 220,
      "outputModuleId": 92,
      "outputId": 0,
      "inputModuleId": 94,
      "inputId": 2,
      "color": "#0986ad"
    },
    {
      "id": 221,
      "outputModuleId": 93,
      "outputId": 0,
      "inputModuleId": 94,
      "inputId": 3,
      "color": "#0c8e15"
    },
    {
      "id": 232,
      "outputModuleId": 94,
      "outputId": 0,
      "inputModuleId": 98,
      "inputId": 0,
      "color": "#0986ad"
    },
    {
      "id": 234,
      "outputModuleId": 98,
      "outputId": 0,
      "inputModuleId": 79,
      "inputId": 0,
      "color": "#0c8e15"
    },
    {
      "id": 229,
      "outputModuleId": 79,
      "outputId": 0,
      "inputModuleId": 2,
      "inputId": 1,
      "color": "#0986ad"
    },
    {
      "id": 179,
      "outputModuleId": 9,
      "outputId": 0,
      "inputModuleId": 72,
      "inputId": 0,
      "color": "#0986ad"
    },
    {
      "id": 68,
      "outputModuleId": 9,
      "outputId": 0,
      "inputModuleId": 26,
      "inputId": 0,
      "color": "#0986ad"
    },
    {
      "id": 239,
      "outputModuleId": 62,
      "outputId": 0,
      "inputModuleId": 79,
      "inputId": 4,
      "color": "#0c8e15"
    },
    {
      "id": 242,
      "outputModuleId": 82,
      "outputId": 3,
      "inputModuleId": 99,
      "inputId": 0,
      "color": "#0c8e15"
    },
    {
      "id": 252,
      "outputModuleId": 100,
      "outputId": 3,
      "inputModuleId": 6,
      "inputId": 4,
      "color": "#c9b70e"
    },
    {
      "id": 258,
      "outputModuleId": 99,
      "outputId": 0,
      "inputModuleId": 104,
      "inputId": 0,
      "color": "#c9b70e"
    },
    {
      "id": 259,
      "outputModuleId": 103,
      "outputId": 0,
      "inputModuleId": 100,
      "inputId": 1,
      "color": "#0c8e15"
    },
    {
      "id": 262,
      "outputModuleId": 104,
      "outputId": 0,
      "inputModuleId": 100,
      "inputId": 0,
      "color": "#c9b70e"
    },
    {
      "id": 148,
      "outputModuleId": 63,
      "outputId": 3,
      "inputModuleId": 2,
      "inputId": 2,
      "color": "#0c8e15"
    },
    {
      "id": 263,
      "outputModuleId": 64,
      "outputId": 0,
      "inputModuleId": 2,
      "inputId": 6,
      "color": "#0c8e15"
    },
    {
      "id": 223,
      "outputModuleId": 5,
      "outputId": 0,
      "inputModuleId": 89,
      "inputId": 2,
      "color": "#c9b70e"
    },
    {
      "id": 265,
      "outputModuleId": 84,
      "outputId": 3,
      "inputModuleId": 99,
      "inputId": 1,
      "color": "#0986ad"
    },
    {
      "id": 266,
      "outputModuleId": 85,
      "outputId": 3,
      "inputModuleId": 6,
      "inputId": 5,
      "color": "#c9b70e"
    },
    {
      "id": 264,
      "outputModuleId": 83,
      "outputId": 3,
      "inputModuleId": 64,
      "inputId": 4,
      "color": "#c91847"
    }
  ]
}