#N canvas 2 134 1916 917 12;
#X obj 144 72 inlet;
#X obj 20 63 inlet;
#X obj 52 257 metro 100;
#X obj 65 322 outlet;
#X obj 155 308 bng 15 250 50 0 empty empty empty 17 7 0 10 -262144
-1 -1;
#X floatatom 187 246 5 0 0 0 - - -;
#X obj 139 133 expr (60000. / $f1 );
#X connect 0 0 6 0;
#X connect 1 0 2 0;
#X connect 2 0 3 0;
#X connect 2 0 4 0;
#X connect 6 0 5 0;
#X connect 6 0 2 1;
