#N canvas 2 56 1916 995 12;
#X obj 235 254 int;
#X msg 148 150 0;
#X obj 119 86 loadbang;
#X obj 272 313 + 1;
#X obj 324 124 mod 7;
#X obj 276 10 inlet;
#X obj 144 19 inlet;
#X text 58 19 maxval;
#X text 326 21 clock;
#X obj 137 396 outlet;
#X connect 0 0 3 0;
#X connect 0 0 9 0;
#X connect 1 0 0 1;
#X connect 2 0 1 0;
#X connect 3 0 4 0;
#X connect 4 0 0 1;
#X connect 5 0 0 0;
#X connect 6 0 4 1;
