#N canvas 2 108 1916 943 12;
#X obj 223 338 random 36;
#X obj 292 395 + 40;
#X obj 321 511 makenote;
#X floatatom 350 394 5 0 0 0 - - -;
#X obj 455 345 random 100;
#X obj 456 395 + 200;
#X floatatom 299 448 5 0 0 0 - - -;
#X floatatom 441 458 5 0 0 0 - - -;
#X obj 478 337;
#X obj 216 75 inlet;
#X obj 184 615 outlet;
#X obj 377 616 outlet;
#X obj 704 110 inlet;
#X obj 287 226 bpmclock;
#X obj 322 286 bng 15 250 50 0 empty empty empty 17 7 0 10 -262144
-1 -1;
#X floatatom 424 143 5 0 0 0 - - -;
#X obj 397 68 inlet;
#X connect 0 0 1 0;
#X connect 1 0 6 0;
#X connect 2 0 10 0;
#X connect 2 1 11 0;
#X connect 3 0 2 1;
#X connect 4 0 5 0;
#X connect 5 0 7 0;
#X connect 6 0 2 0;
#X connect 7 0 2 2;
#X connect 9 0 13 0;
#X connect 12 0 3 0;
#X connect 13 0 0 0;
#X connect 13 0 14 0;
#X connect 13 0 4 0;
#X connect 16 0 15 0;
#X connect 16 0 13 1;
