#N canvas 2 160 1916 891 10;
#X obj 38 27 inlet;
#X obj 36 284 list store;
#X obj 270 106 until;
#X obj 102 153 f;
#X obj 108 228 + 1;
#X msg 30 225 get \$1 1;
#X obj 44 118 0;
#X obj 24 357 outlet;
#X obj 128 376 outlet;
#X obj 64 56 t b b a;
#X obj 80 27 inlet;
#X connect 0 0 9 0;
#X connect 1 0 7 0;
#X connect 1 1 8 0;
#X connect 1 1 2 1;
#X connect 2 0 3 0;
#X connect 3 0 5 0;
#X connect 3 0 4 0;
#X connect 4 0 3 1;
#X connect 5 0 1 0;
#X connect 6 0 3 1;
#X connect 9 0 2 0;
#X connect 9 1 6 0;
#X connect 9 2 1 1;
#X connect 10 0 9 0;
