#N canvas 962 56 956 995 12;
#X obj 136 26 vradio 15 1 1 7 empty mode_selection modesel 0 -8 0 10
-262144 -1 -1 1;
#X msg 34 286 2 2 1 2 2 2 1;
#X msg 193 282 2 1 2 2 2 1 2;
#X msg 362 282 1 2 2 2 1 2 2;
#X msg 10 358 2 2 2 1 2 2 1;
#X msg 128 356 2 2 1 2 2 1 2;
#X msg 253 355 2 1 2 2 1 2 2;
#X msg 369 359 1 2 2 1 2 2 2;
#X obj 171 216 route 0 1 2 3 4 5 6;
#X obj 380 183 print oups?!;
#X obj 272 514 list;
#X obj 113 540 enum 7;
#X obj 275 594 list split;
#X obj 110 824 + 1;
#X obj 259 736 list split;
#X obj 313 904 outlet;
#X obj 226 37 inlet;
#X obj 206 89 s mode_selection;
#X text 556 74 on the left inlet \, send a bang on the right inlet
put 0 \, 1 \, 2 \, 3 \, 4 \, 5 or 6 and the outlet gives you the next
note of the mode resp. I \, II \, III \, IV \, V \, VI \, VII;
#X obj 14 52 inlet;
#X msg 475 735 0;
#X obj 446 790 i 0;
#X obj 421 834 +;
#X obj 441 898 outlet;
#X obj 25 739 print enum;
#X obj 403 663 route 0;
#X obj 134 597 t f f f f;
#X obj 330 793 t f f;
#X obj 687 920 outlet;
#X obj 772 840 bang;
#X connect 0 0 8 0;
#X connect 1 0 10 1;
#X connect 2 0 10 1;
#X connect 3 0 10 1;
#X connect 4 0 10 1;
#X connect 5 0 10 1;
#X connect 6 0 10 1;
#X connect 7 0 10 1;
#X connect 8 0 1 0;
#X connect 8 1 2 0;
#X connect 8 2 3 0;
#X connect 8 3 4 0;
#X connect 8 4 5 0;
#X connect 8 5 6 0;
#X connect 8 6 7 0;
#X connect 8 7 9 0;
#X connect 10 0 12 0;
#X connect 11 0 26 0;
#X connect 12 0 14 0;
#X connect 13 0 12 1;
#X connect 14 1 27 0;
#X connect 16 0 17 0;
#X connect 19 0 11 1;
#X connect 19 0 10 0;
#X connect 20 0 21 0;
#X connect 21 0 22 1;
#X connect 22 0 23 0;
#X connect 22 0 21 0;
#X connect 25 0 20 0;
#X connect 25 0 29 0;
#X connect 26 0 24 0;
#X connect 26 1 14 1;
#X connect 26 2 13 0;
#X connect 26 3 25 0;
#X connect 27 0 15 0;
#X connect 27 1 22 0;
#X connect 29 0 28 0;
