#N canvas 962 56 956 995 12;
#X obj 43 208 bng 15 250 50 0 empty empty empty 17 7 0 10 -262144 -1
-1;
#X obj 29 66 tgl 15 0 empty empty empty 17 7 0 10 -262144 -1 -1 1 1
;
#X obj 42 131 bpmclock;
#X obj 184 247 modesel;
#X obj 327 70 vradio 15 1 0 7 empty empty empty 0 -8 0 10 -262144 -1
-1 0;
#X text 348 67 I II III IV V VI VII;
#X floatatom 308 327 5 0 0 1 Base_MIDI_pitch - -;
#X obj 565 210 69;
#X obj 512 34 loadbang;
#X obj 208 328 +;
#X obj 61 373 - 2;
#X obj 206 497 makenote;
#X obj 207 569 noteout;
#X obj 327 180;
#X floatatom 269 453 5 0 0 0 - - -;
#X obj 545 263 50;
#X obj 16 580 print flo;
#X obj 321 21 hsl 128 15 15 240 0 0 r_bpm empty BPM -2 -8 0 10 -262144
-1 -1 12700 1;
#X obj 556 155 s r_bpm;
#X obj 106 62 r r_bpm;
#X obj 552 86 80;
#X obj 63 305 print fli;
#X obj 490 95 200;
#X floatatom 404 474 5 0 0 0 - r_velocity -;
#X obj 428 162 s r_velocity;
#X obj 269 386 print summa;
#X obj 263 278 enum 2;
#X obj 114 419 expr ($f1 + $f2 * 12);
#X obj 342 210 float 2;
#X connect 1 0 2 0;
#X connect 2 0 0 0;
#X connect 2 0 3 0;
#X connect 3 1 9 0;
#X connect 3 1 21 0;
#X connect 3 2 26 1;
#X connect 4 0 13 0;
#X connect 4 0 3 1;
#X connect 6 0 9 1;
#X connect 6 0 25 0;
#X connect 7 0 6 0;
#X connect 8 0 7 0;
#X connect 8 0 15 0;
#X connect 8 0 20 0;
#X connect 8 0 22 0;
#X connect 8 0 28 0;
#X connect 9 0 10 0;
#X connect 10 0 16 0;
#X connect 10 0 27 0;
#X connect 11 0 12 0;
#X connect 11 1 12 1;
#X connect 14 0 11 1;
#X connect 15 0 14 0;
#X connect 19 0 2 1;
#X connect 20 0 18 0;
#X connect 22 0 24 0;
#X connect 23 0 11 2;
#X connect 26 0 27 1;
#X connect 27 0 11 0;
#X connect 28 0 26 0;
