#N canvas 2 160 1916 891 12;
#X obj 106 194 generator;
#X obj 53 66 tgl 15 0 empty empty empty 17 7 0 10 -262144 -1 -1 1 1
;
#X obj 206 14 loadbang;
#X obj 361 48 hsl 128 15 15 240 0 0 g_bpm empty BPM -2 -8 0 10 -262144
-1 -1 5900 1;
#X floatatom 95 86 5 0 0 3 bpm g_bpm -;
#X obj 361 99 hsl 128 15 0 100 0 0 g_velocity empty Velocity -2 -8
0 10 -262144 -1 -1 8000 1;
#X floatatom 169 93 5 0 100 3 velo g_velocity -;
#X obj 212 251 int 0;
#X obj 102 296 noteout;
#X connect 0 0 8 0;
#X connect 0 1 8 1;
#X connect 1 0 0 0;
#X connect 2 0 7 0;
#X connect 4 0 0 1;
#X connect 6 0 0 2;
